{"asset":{"version":"2.0","generator":"babylon.js glTF exporter for 3dsmax 2017 v20200423.3"},"scene":0,"scenes":[{"nodes":[0,1,2,3,4,5,6,7,8]}],"nodes":[{"mesh":0,"translation":[0.006314049,0.457999438,-0.0465983152],"rotation":[0.7071068,0.0,0.0,0.7071067],"scale":[10.0,10.0,10.0],"name":"Cubo_4"},{"mesh":1,"translation":[0.006314049,-0.05853927,-0.0465983152],"rotation":[0.7071068,0.0,0.0,0.7071067],"scale":[10.0,10.0,10.0],"name":"Cubo_3"},{"mesh":2,"translation":[0.00367197255,0.100833036,-0.181438863],"rotation":[0.5,-0.5,0.5,0.5],"scale":[10.0,10.0,10.0],"name":"Cubo_2"},{"mesh":3,"translation":[0.247998089,0.100833036,-0.0465983152],"rotation":[0.7071068,0.0,0.0,0.7071067],"scale":[10.0,10.0,10.0],"name":"Cubo_1"},{"mesh":4,"translation":[-0.03473629,-0.41882357,0.0925599],"rotation":[0.699211,0.105375811,-0.105375811,0.6992109],"scale":[10.000001,10.000001,10.0],"name":"modern_home_fireplace_1314_Wood2"},{"mesh":5,"translation":[-0.04011388,-0.467692435,0.07512388],"rotation":[0.699211,0.105375811,-0.105375811,0.6992109],"scale":[10.000001,10.000001,10.0],"name":"modern_home_fireplace_1314_Fire"},{"mesh":6,"translation":[-0.2319877,0.100833036,-0.0465983152],"rotation":[0.7071068,0.0,0.0,0.7071067],"scale":[10.0,10.0,10.0],"name":"Cubo"},{"mesh":7,"translation":[0.0,-0.595422864,-0.05078545],"rotation":[1.110223E-16,0.0,0.0,1.0],"scale":[10.0,10.0,10.0],"name":"fusion_pellet_stove"},{"name":"Default light"}],"meshes":[{"primitives":[{"attributes":{"POSITION":1,"NORMAL":2,"TEXCOORD_0":3},"indices":0,"material":0}],"name":"Cubo_4"},{"primitives":[{"attributes":{"POSITION":5,"NORMAL":6,"TEXCOORD_0":7},"indices":4,"material":1}],"name":"Cubo_3"},{"primitives":[{"attributes":{"POSITION":9,"NORMAL":10,"TEXCOORD_0":11},"indices":8,"material":0}],"name":"Cubo_2"},{"primitives":[{"attributes":{"POSITION":13,"NORMAL":14,"TEXCOORD_0":15},"indices":12,"material":0}],"name":"Cubo_1"},{"primitives":[{"attributes":{"POSITION":17,"NORMAL":18,"TEXCOORD_0":19},"indices":16,"material":2}],"name":"modern_home_fireplace_1314_Wood2"},{"primitives":[{"attributes":{"POSITION":21,"NORMAL":22,"TEXCOORD_0":23},"indices":20,"material":3}],"name":"modern_home_fireplace_1314_Fire"},{"primitives":[{"attributes":{"POSITION":25,"NORMAL":26,"TEXCOORD_0":27},"indices":24,"material":0}],"name":"Cubo"},{"primitives":[{"attributes":{"POSITION":29,"NORMAL":30,"TEXCOORD_0":31,"TEXCOORD_1":32},"indices":28,"material":4},{"attributes":{"POSITION":34,"NORMAL":35,"TEXCOORD_0":36,"TEXCOORD_1":37},"indices":33,"material":5},{"attributes":{"POSITION":39,"NORMAL":40,"TEXCOORD_0":41,"TEXCOORD_1":42},"indices":38,"material":6},{"attributes":{"POSITION":44,"NORMAL":45,"TEXCOORD_0":46,"TEXCOORD_1":47},"indices":43,"material":7}],"name":"fusion_pellet_stove"}],"accessors":[{"bufferView":0,"componentType":5123,"count":36,"type":"SCALAR","name":"accessorIndices"},{"bufferView":1,"componentType":5126,"count":36,"max":[0.0249289814,0.0200000014,0.00716411974],"min":[-0.0249289814,-0.0200000014,-0.00716411974],"type":"VEC3","name":"accessorPositions"},{"bufferView":1,"byteOffset":432,"componentType":5126,"count":36,"type":"VEC3","name":"accessorNormals"},{"bufferView":2,"componentType":5126,"count":36,"type":"VEC2","name":"accessorUVs"},{"bufferView":0,"byteOffset":72,"componentType":5123,"count":36,"type":"SCALAR","name":"accessorIndices"},{"bufferView":1,"byteOffset":864,"componentType":5126,"count":36,"max":[0.0249289814,0.0200000014,0.00110530248],"min":[-0.0249289814,-0.0200000014,-0.00110530248],"type":"VEC3","name":"accessorPositions"},{"bufferView":1,"byteOffset":1296,"componentType":5126,"count":36,"type":"VEC3","name":"accessorNormals"},{"bufferView":2,"byteOffset":288,"componentType":5126,"count":36,"type":"VEC2","name":"accessorUVs"},{"bufferView":0,"byteOffset":144,"componentType":5123,"count":36,"type":"SCALAR","name":"accessorIndices"},{"bufferView":1,"byteOffset":1728,"componentType":5126,"count":36,"max":[0.003208325,0.0200000014,0.0416864678],"min":[-0.003208325,-0.0200000014,-0.0416864678],"type":"VEC3","name":"accessorPositions"},{"bufferView":1,"byteOffset":2160,"componentType":5126,"count":36,"type":"VEC3","name":"accessorNormals"},{"bufferView":2,"byteOffset":576,"componentType":5126,"count":36,"type":"VEC2","name":"accessorUVs"},{"bufferView":0,"byteOffset":216,"componentType":5123,"count":36,"type":"SCALAR","name":"accessorIndices"},{"bufferView":1,"byteOffset":2592,"componentType":5126,"count":36,"max":[0.003208325,0.0200000014,0.0416864678],"min":[-0.003208325,-0.0200000014,-0.0416864678],"type":"VEC3","name":"accessorPositions"},{"bufferView":1,"byteOffset":3024,"componentType":5126,"count":36,"type":"VEC3","name":"accessorNormals"},{"bufferView":2,"byteOffset":864,"componentType":5126,"count":36,"type":"VEC2","name":"accessorUVs"},{"bufferView":0,"byteOffset":288,"componentType":5123,"count":44040,"type":"SCALAR","name":"accessorIndices"},{"bufferView":1,"byteOffset":3456,"componentType":5126,"count":44040,"max":[0.0156533737,0.009417779,-0.0370658152],"min":[-0.00962945353,-0.009643306,-0.0510902442],"type":"VEC3","name":"accessorPositions"},{"bufferView":1,"byteOffset":531936,"componentType":5126,"count":44040,"type":"VEC3","name":"accessorNormals"},{"bufferView":2,"byteOffset":1152,"componentType":5126,"count":44040,"type":"VEC2","name":"accessorUVs"},{"bufferView":0,"byteOffset":88368,"componentType":5123,"count":1680,"type":"SCALAR","name":"accessorIndices"},{"bufferView":1,"byteOffset":1060416,"componentType":5126,"count":1680,"max":[0.03347108,0.010783297,-0.0308379959],"min":[-0.0222441461,-0.0160100814,-0.0826448],"type":"VEC3","name":"accessorPositions"},{"bufferView":1,"byteOffset":1080576,"componentType":5126,"count":1680,"type":"VEC3","name":"accessorNormals"},{"bufferView":2,"byteOffset":353472,"componentType":5126,"count":1680,"type":"VEC2","name":"accessorUVs"},{"bufferView":0,"byteOffset":91728,"componentType":5123,"count":36,"type":"SCALAR","name":"accessorIndices"},{"bufferView":1,"byteOffset":1100736,"componentType":5126,"count":36,"max":[0.003208325,0.0200000014,0.0416864678],"min":[-0.003208325,-0.0200000014,-0.0416864678],"type":"VEC3","name":"accessorPositions"},{"bufferView":1,"byteOffset":1101168,"componentType":5126,"count":36,"type":"VEC3","name":"accessorNormals"},{"bufferView":2,"byteOffset":366912,"componentType":5126,"count":36,"type":"VEC2","name":"accessorUVs"},{"bufferView":0,"byteOffset":91800,"componentType":5123,"count":8460,"type":"SCALAR","name":"accessorIndices"},{"bufferView":1,"byteOffset":1101600,"componentType":5126,"count":8460,"max":[0.03455514,0.119084574,0.0356973223],"min":[-0.0345551372,-6.55276042E-11,-0.0255402289],"type":"VEC3","name":"accessorPositions"},{"bufferView":1,"byteOffset":1203120,"componentType":5126,"count":8460,"type":"VEC3","name":"accessorNormals"},{"bufferView":2,"byteOffset":367200,"componentType":5126,"count":8460,"type":"VEC2","name":"accessorUVs"},{"bufferView":2,"byteOffset":434880,"componentType":5126,"count":8460,"type":"VEC2","name":"accessorUV2s"},{"bufferView":0,"byteOffset":108720,"componentType":5123,"count":2808,"type":"SCALAR","name":"accessorIndices"},{"bufferView":1,"byteOffset":1304640,"componentType":5126,"count":2808,"max":[0.0311817955,0.119084574,0.0269338749],"min":[-0.0304143652,0.03485641,-0.0255402271],"type":"VEC3","name":"accessorPositions"},{"bufferView":1,"byteOffset":1338336,"componentType":5126,"count":2808,"type":"VEC3","name":"accessorNormals"},{"bufferView":2,"byteOffset":502560,"componentType":5126,"count":2808,"type":"VEC2","name":"accessorUVs"},{"bufferView":2,"byteOffset":525024,"componentType":5126,"count":2808,"type":"VEC2","name":"accessorUV2s"},{"bufferView":0,"byteOffset":114336,"componentType":5123,"count":636,"type":"SCALAR","name":"accessorIndices"},{"bufferView":1,"byteOffset":1372032,"componentType":5126,"count":636,"max":[0.0232967269,0.0705,0.028212199],"min":[0.0224967245,0.05432183,0.0218408927],"type":"VEC3","name":"accessorPositions"},{"bufferView":1,"byteOffset":1379664,"componentType":5126,"count":636,"type":"VEC3","name":"accessorNormals"},{"bufferView":2,"byteOffset":547488,"componentType":5126,"count":636,"type":"VEC2","name":"accessorUVs"},{"bufferView":2,"byteOffset":552576,"componentType":5126,"count":636,"type":"VEC2","name":"accessorUV2s"},{"bufferView":0,"byteOffset":115608,"componentType":5123,"count":1296,"type":"SCALAR","name":"accessorIndices"},{"bufferView":1,"byteOffset":1387296,"componentType":5126,"count":1296,"max":[0.0248967279,0.05372621,0.0351118073],"min":[0.0208967272,0.046398636,0.0284377653],"type":"VEC3","name":"accessorPositions"},{"bufferView":1,"byteOffset":1402848,"componentType":5126,"count":1296,"type":"VEC3","name":"accessorNormals"},{"bufferView":2,"byteOffset":557664,"componentType":5126,"count":1296,"type":"VEC2","name":"accessorUVs"},{"bufferView":2,"byteOffset":568032,"componentType":5126,"count":1296,"type":"VEC2","name":"accessorUV2s"}],"bufferViews":[{"buffer":0,"byteLength":118200,"name":"bufferViewScalar"},{"buffer":0,"byteOffset":118200,"byteLength":1418400,"byteStride":12,"name":"bufferViewFloatVec3"},{"buffer":0,"byteOffset":1536600,"byteLength":578400,"byteStride":8,"name":"bufferViewFloatVec2"}],"buffers":[{"uri":"stufa.bin","byteLength":2115000}],"materials":[{"pbrMetallicRoughness":{"baseColorFactor":[0.8,0.8,0.8,1.0],"metallicFactor":0.0,"roughnessFactor":0.240331292},"emissiveFactor":[1.0,0.483333319,0.0],"name":"Nuovo"},{"pbrMetallicRoughness":{"baseColorFactor":[0.8,0.8,0.8,1.0],"metallicFactor":0.0,"roughnessFactor":0.7022211},"name":"Nuovo_1"},{"pbrMetallicRoughness":{"baseColorTexture":{"index":0},"metallicFactor":0.0,"roughnessFactor":0.3882092},"name":"modern_home_fireplace_1314_Wood2_MatSG_Mat"},{"pbrMetallicRoughness":{"baseColorTexture":{"index":2},"metallicFactor":0.0,"roughnessFactor":0.7022211},"occlusionTexture":{"index":1},"name":"modern_home_fireplace_1314_Fire_MatSG_Mat"},{"pbrMetallicRoughness":{"baseColorFactor":[0.29,0.0,0.0,1.0],"metallicFactor":0.0,"roughnessFactor":0.201679826},"name":"Material #61"},{"pbrMetallicRoughness":{"baseColorFactor":[0.0,0.0,0.0,1.0],"metallicFactor":0.0,"roughnessFactor":0.7022211},"name":"Material #58"},{"pbrMetallicRoughness":{"baseColorFactor":[0.8,0.8,0.8,1.0],"metallicFactor":0.0,"roughnessFactor":0.240331292},"name":"Material #56"},{"pbrMetallicRoughness":{"baseColorFactor":[0.23,0.00370967761,0.00370967761,1.0],"metallicFactor":0.0,"roughnessFactor":0.240331292},"name":"Material #60"}],"textures":[{"sampler":0,"source":0,"name":"modern_home_fireplace_1314_Wood1_Mat_baseColor.png"},{"sampler":0,"source":1,"name":"modern_home_fireplace_1314_Fire_Mat_metallic.png"},{"sampler":0,"source":2,"name":"modern_home_fireplace_1314_Fire_Mat_baseColor.png"}],"images":[{"uri":"D:/_Clienti/Stufa_pellet/Cinema/web3d/modern_home_fireplace_1314_Wood1_Mat_baseColor.png"},{"uri":"D:/_Clienti/Stufa_pellet/Cinema/web3d/modern_home_fireplace_1314_Fire_Mat_metallic.png"},{"uri":"D:/_Clienti/Stufa_pellet/Cinema/web3d/modern_home_fireplace_1314_Fire_Mat_baseColor.png"}],"samplers":[{"magFilter":9729,"minFilter":9987}]}